{
    "asset": {
        "copyright": "2020 (c) Adobe Inc.",
        "generator": "Adobe Dimension - a39c749b7f1dd68e8fcb597e3575f0bb9d09bfc8",
        "version": "2.0"
    },
    "accessors": [
        {
            "bufferView": 0,
            "componentType": 5126,
            "count": 2399,
            "type": "VEC3",
            "max": [
                0.09999999403953552,
                0.19999998807907105,
                0.09999999403953552
            ],
            "min": [
                -0.09999999403953552,
                0.0,
                -0.09999999403953552
            ]
        },
        {
            "bufferView": 1,
            "componentType": 5126,
            "count": 2399,
            "type": "VEC3"
        },
        {
            "bufferView": 2,
            "componentType": 5126,
            "count": 2399,
            "type": "VEC2"
        },
        {
            "bufferView": 3,
            "componentType": 5125,
            "count": 13536,
            "type": "SCALAR",
            "max": [
                2398.0
            ],
            "min": [
                0.0
            ]
        },
        {
            "bufferView": 4,
            "componentType": 5126,
            "count": 60,
            "type": "VEC3",
            "max": [
                0.09341723471879959,
                0.18683448433876038,
                0.09341723471879959
            ],
            "min": [
                -0.09341723471879959,
                0.0,
                -0.09341723471879959
            ]
        },
        {
            "bufferView": 5,
            "componentType": 5126,
            "count": 60,
            "type": "VEC3"
        },
        {
            "bufferView": 6,
            "componentType": 5126,
            "count": 60,
            "type": "VEC2"
        },
        {
            "bufferView": 7,
            "componentType": 5125,
            "count": 108,
            "type": "SCALAR",
            "max": [
                59.0
            ],
            "min": [
                0.0
            ]
        }
    ],
    "bufferViews": [
        {
            "buffer": 0,
            "byteOffset": 0,
            "byteLength": 28788,
            "target": 34962
        },
        {
            "buffer": 0,
            "byteOffset": 28788,
            "byteLength": 28788,
            "target": 34962
        },
        {
            "buffer": 0,
            "byteOffset": 57576,
            "byteLength": 19192,
            "target": 34962
        },
        {
            "buffer": 0,
            "byteOffset": 76768,
            "byteLength": 54144,
            "target": 34963
        },
        {
            "buffer": 0,
            "byteOffset": 130912,
            "byteLength": 720,
            "target": 34962
        },
        {
            "buffer": 0,
            "byteOffset": 131632,
            "byteLength": 720,
            "target": 34962
        },
        {
            "buffer": 0,
            "byteOffset": 132352,
            "byteLength": 480,
            "target": 34962
        },
        {
            "buffer": 0,
            "byteOffset": 132832,
            "byteLength": 432,
            "target": 34963
        }
    ],
    "buffers": [
        {
            "byteLength": 133264,
            "uri": "SummerComingLefty_binary.bin"
        }
    ],
    "cameras": [
        {
            "perspective": {
                "znear": 0.000010000000656873454,
                "yfov": 0.6024156808853149,
                "zfar": 2.0,
                "aspectRatio": 1.3333333730697632
            },
            "type": "perspective",
            "name": "render_camera"
        }
    ],
    "images": [
        {
            "name": "material_plastic_material_7_base_color_4",
            "uri": "SummerComingLefty_images/material_plastic_material_7_base_color_4.jpg",
            "mimeType": "image/jpeg"
        }
    ],
    "materials": [
        {
            "pbrMetallicRoughness": {
                "baseColorTexture": {
                    "index": 0
                },
                "metallicFactor": 0.0,
                "roughnessFactor": 0.028999999165534974
            },
            "name": "Plastic 2",
            "doubleSided": true
        },
        {
            "pbrMetallicRoughness": {
                "baseColorFactor": [
                    1.0,
                    0.7991020679473877,
                    0.0030352941248565914,
                    1.0
                ],
                "metallicFactor": 0.0,
                "roughnessFactor": 0.028999999165534974
            },
            "name": "Plastic 14",
            "doubleSided": true
        }
    ],
    "meshes": [
        {
            "name": "PROCEDURAL_MESHES_SPHERE#",
            "primitives": [
                {
                    "attributes": {
                        "POSITION": 0,
                        "NORMAL": 1,
                        "TEXCOORD_0": 2
                    },
                    "indices": 3,
                    "material": 0
                }
            ]
        },
        {
            "name": "PROCEDURAL_MESHES_SPHERE#",
            "primitives": [
                {
                    "attributes": {
                        "TEXCOORD_0": 2,
                        "NORMAL": 1,
                        "POSITION": 0
                    },
                    "indices": 3,
                    "material": 0
                }
            ]
        },
        {
            "name": "PROCEDURAL_MESHES_SPHERE#",
            "primitives": [
                {
                    "attributes": {
                        "POSITION": 0,
                        "NORMAL": 1,
                        "TEXCOORD_0": 2
                    },
                    "indices": 3,
                    "material": 0
                }
            ]
        },
        {
            "name": "PROCEDURAL_MESHES_SPHERE#",
            "primitives": [
                {
                    "attributes": {
                        "POSITION": 0,
                        "NORMAL": 1,
                        "TEXCOORD_0": 2
                    },
                    "indices": 3,
                    "material": 0
                }
            ]
        },
        {
            "name": "PROCEDURAL_MESHES_SPHERE#",
            "primitives": [
                {
                    "attributes": {
                        "TEXCOORD_0": 2,
                        "NORMAL": 1,
                        "POSITION": 0
                    },
                    "indices": 3,
                    "material": 0
                }
            ]
        },
        {
            "name": "PROCEDURAL_MESHES_SPHERE#",
            "primitives": [
                {
                    "attributes": {
                        "TEXCOORD_0": 2,
                        "NORMAL": 1,
                        "POSITION": 0
                    },
                    "indices": 3,
                    "material": 0
                }
            ]
        },
        {
            "name": "PROCEDURAL_MESHES_SPHERE#",
            "primitives": [
                {
                    "attributes": {
                        "TEXCOORD_0": 2,
                        "NORMAL": 1,
                        "POSITION": 0
                    },
                    "indices": 3,
                    "material": 0
                }
            ]
        },
        {
            "name": "Dodecahedron",
            "primitives": [
                {
                    "attributes": {
                        "TEXCOORD_0": 6,
                        "NORMAL": 5,
                        "POSITION": 4
                    },
                    "indices": 7,
                    "material": 1
                }
            ]
        },
        {
            "name": "PROCEDURAL_MESHES_SPHERE#",
            "primitives": [
                {
                    "attributes": {
                        "POSITION": 0,
                        "NORMAL": 1,
                        "TEXCOORD_0": 2
                    },
                    "indices": 3,
                    "material": 0
                }
            ]
        },
        {
            "name": "PROCEDURAL_MESHES_SPHERE#",
            "primitives": [
                {
                    "attributes": {
                        "POSITION": 0,
                        "NORMAL": 1,
                        "TEXCOORD_0": 2
                    },
                    "indices": 3,
                    "material": 0
                }
            ]
        },
        {
            "name": "PROCEDURAL_MESHES_SPHERE#",
            "primitives": [
                {
                    "attributes": {
                        "POSITION": 0,
                        "NORMAL": 1,
                        "TEXCOORD_0": 2
                    },
                    "indices": 3,
                    "material": 0
                }
            ]
        },
        {
            "name": "PROCEDURAL_MESHES_SPHERE#",
            "primitives": [
                {
                    "attributes": {
                        "POSITION": 0,
                        "NORMAL": 1,
                        "TEXCOORD_0": 2
                    },
                    "indices": 3,
                    "material": 0
                }
            ]
        },
        {
            "name": "PROCEDURAL_MESHES_SPHERE#",
            "primitives": [
                {
                    "attributes": {
                        "POSITION": 0,
                        "NORMAL": 1,
                        "TEXCOORD_0": 2
                    },
                    "indices": 3,
                    "material": 0
                }
            ]
        }
    ],
    "nodes": [
        {
            "translation": [
                -0.5375120639801025,
                -0.348061203956604,
                0.6890830993652344
            ],
            "rotation": [
                -0.12059047073125839,
                0.379409521818161,
                0.04995020851492882,
                0.9159756302833557
            ],
            "scale": [
                1.0,
                1.0,
                0.9999999403953552
            ],
            "camera": 0,
            "name": "render_camera_n3d"
        },
        {
            "children": [
                2,
                3,
                4,
                5,
                6,
                7,
                8,
                9,
                10,
                11,
                12,
                13,
                14
            ],
            "translation": [
                0.07781997323036194,
                -0.03399261459708214,
                0.08048234134912491
            ],
            "name": "Pink Flower"
        },
        {
            "translation": [
                -0.07934408634901047,
                0.17807288467884065,
                -0.0804823562502861
            ],
            "rotation": [
                -0.8660253882408142,
                -4.202905909991795e-15,
                -6.501922841308536e-16,
                0.5
            ],
            "scale": [
                0.07810656726360321,
                0.720401406288147,
                0.24537721276283265
            ],
            "mesh": 0,
            "name": "Sphere 10"
        },
        {
            "translation": [
                -0.07934408634901047,
                0.17807279527187348,
                -0.0804823562502861
            ],
            "rotation": [
                -0.7071067690849304,
                -2.1755846432648837e-15,
                -2.1755846432648837e-15,
                0.7071067690849304
            ],
            "scale": [
                0.07810656726360321,
                0.720401406288147,
                0.24537719786167146
            ],
            "mesh": 1,
            "name": "Sphere 9"
        },
        {
            "translation": [
                -0.07934408634901047,
                0.17807288467884065,
                -0.08048234134912491
            ],
            "rotation": [
                0.9659258127212524,
                4.227977238197575e-15,
                -4.597547665721757e-16,
                -0.25881898403167727
            ],
            "scale": [
                0.07810656726360321,
                0.7204013466835022,
                0.24537721276283265
            ],
            "mesh": 2,
            "name": "Sphere 11"
        },
        {
            "translation": [
                -0.07934408634901047,
                0.17807288467884065,
                -0.08048231899738312
            ],
            "rotation": [
                1.0,
                4.122047986028222e-16,
                2.014343451425555e-15,
                2.0684527868297665e-8
            ],
            "scale": [
                0.07810656726360321,
                0.7204012870788574,
                0.24537719786167146
            ],
            "mesh": 3,
            "name": "Sphere 12"
        },
        {
            "translation": [
                -0.07934410125017166,
                0.17807288467884065,
                -0.0804823487997055
            ],
            "rotation": [
                -0.258819043636322,
                4.597550312699717e-16,
                -1.715829135538879e-15,
                0.9659258127212524
            ],
            "scale": [
                0.07810656726360321,
                0.720401406288147,
                0.2453770786523819
            ],
            "mesh": 4,
            "name": "Sphere 7"
        },
        {
            "translation": [
                -0.07934408634901047,
                0.17807288467884065,
                -0.08048229664564133
            ],
            "rotation": [
                0.9659258127212524,
                9.195098507817066e-16,
                1.839019701563413e-15,
                0.258819043636322
            ],
            "scale": [
                0.07810656726360321,
                0.7204012870788574,
                0.24537712335586549
            ],
            "mesh": 5,
            "name": "Sphere 13"
        },
        {
            "translation": [
                -0.07934408634901047,
                0.17807279527187348,
                -0.0804823487997055
            ],
            "rotation": [
                -0.5,
                -1.538370227374946e-15,
                -2.664535047342139e-15,
                0.8660253882408142
            ],
            "scale": [
                0.07810656726360321,
                0.720401406288147,
                0.24537712335586549
            ],
            "mesh": 6,
            "name": "Sphere 8"
        },
        {
            "translation": [
                -0.09955580532550812,
                0.16464239358901978,
                -0.07416526973247528
            ],
            "rotation": [
                -0.14034757018089295,
                -3.0693117492042179e-10,
                -0.4447442889213562,
                0.8845931887626648
            ],
            "scale": [
                0.2957093119621277,
                0.2957092523574829,
                0.2957093417644501
            ],
            "mesh": 7,
            "name": "Dodecahedron"
        },
        {
            "translation": [
                -0.07934410125017166,
                0.17807288467884065,
                -0.0804823487997055
            ],
            "rotation": [
                0.5,
                0.0,
                0.0,
                0.8660253882408142
            ],
            "scale": [
                0.07810656726360321,
                0.7204012870788574,
                0.24537712335586549
            ],
            "mesh": 8,
            "name": "Sphere 4"
        },
        {
            "translation": [
                -0.07934408634901047,
                0.17807288467884065,
                -0.08048228919506073
            ],
            "rotation": [
                0.7071068286895752,
                1.7158289237806423e-15,
                1.1328828500301036e-15,
                0.7071067690849304
            ],
            "scale": [
                0.07810656726360321,
                0.7204012870788574,
                0.24537719786167146
            ],
            "mesh": 9,
            "name": "Sphere 15"
        },
        {
            "translation": [
                -0.07934410125017166,
                0.17807288467884065,
                -0.0804823487997055
            ],
            "rotation": [
                0.258819043636322,
                0.0,
                0.0,
                0.9659258127212524
            ],
            "scale": [
                0.07810656726360321,
                0.7204012870788574,
                0.24537712335586549
            ],
            "mesh": 10,
            "name": "Sphere 5"
        },
        {
            "translation": [
                -0.07934410125017166,
                0.17807288467884065,
                -0.08048234134912491
            ],
            "rotation": [
                -2.0684527868297665e-8,
                0.0,
                0.0,
                1.0
            ],
            "scale": [
                0.07810656726360321,
                0.7204012870788574,
                0.2453770935535431
            ],
            "mesh": 11,
            "name": "Sphere 6"
        },
        {
            "translation": [
                -0.07934408634901047,
                0.17807288467884065,
                -0.08048228919506073
            ],
            "rotation": [
                0.8660253882408142,
                1.3641514319924975e-15,
                1.5383701214958276e-15,
                0.5
            ],
            "scale": [
                0.07810656726360321,
                0.7204012870788574,
                0.2453770786523819
            ],
            "mesh": 12,
            "name": "Sphere 14"
        }
    ],
    "samplers": [
        {}
    ],
    "scenes": [
        {
            "nodes": [
                0,
                1
            ],
            "name": "scene"
        }
    ],
    "textures": [
        {
            "name": "texture4175655",
            "sampler": 0,
            "source": 0
        }
    ],
    "scene": 0
}